<?xml version="1.0" encoding="UTF-8" standalone="no"?>
<!-- Created with Inkscape (http://www.inkscape.org/) -->

<svg
   xmlns:dc="http://purl.org/dc/elements/1.1/"
   xmlns:cc="http://creativecommons.org/ns#"
   xmlns:rdf="http://www.w3.org/1999/02/22-rdf-syntax-ns#"
   xmlns:svg="http://www.w3.org/2000/svg"
   xmlns="http://www.w3.org/2000/svg"
   xmlns:sodipodi="http://sodipodi.sourceforge.net/DTD/sodipodi-0.dtd"
   xmlns:inkscape="http://www.inkscape.org/namespaces/inkscape"
   width="64px"
   height="64px"
   id="svg3574"
   version="1.1"
   inkscape:version="0.48.4 r9939"
   sodipodi:docname="Nouveau document 14">
  <defs
     id="defs3576" />
  <sodipodi:namedview
     id="base"
     pagecolor="#ffffff"
     bordercolor="#666666"
     borderopacity="1.0"
     inkscape:pageopacity="0.0"
     inkscape:pageshadow="2"
     inkscape:zoom="10.24"
     inkscape:cx="55.193752"
     inkscape:cy="22.123681"
     inkscape:current-layer="layer1"
     showgrid="true"
     inkscape:document-units="px"
     inkscape:grid-bbox="true"
     inkscape:window-width="1615"
     inkscape:window-height="1026"
     inkscape:window-x="1431"
     inkscape:window-y="24"
     inkscape:window-maximized="1" />
  <metadata
     id="metadata3579">
    <rdf:RDF>
      <cc:Work
         rdf:about="">
        <dc:format>image/svg+xml</dc:format>
        <dc:type
           rdf:resource="http://purl.org/dc/dcmitype/StillImage" />
        <dc:title></dc:title>
      </cc:Work>
    </rdf:RDF>
  </metadata>
  <g
     id="layer1"
     inkscape:label="Layer 1"
     inkscape:groupmode="layer">
    <path
       d="m 0.24863602,28.922884 2.77964608,0 0.1985454,-3.47618 -2.58126287,-0.868743 -0.39692861,4.344923 z"
       id="path3390"
       inkscape:connector-curvature="0"
       style="fill:#4c4c4c" />
    <path
       d="M 0.74500012,23.998397 3.2268275,24.86738 3.8224699,21.825934 1.7377343,20.233035 0.74500012,23.998397 z"
       id="path3392"
       inkscape:connector-curvature="0"
       style="fill:#4c4c4c" />
    <path
       d="M 1.9361125,19.653472 3.9215749,21.246611 5.5101086,19.653472 4.0210154,17.191349 1.9361125,19.653472 z"
       id="path3394"
       inkscape:connector-curvature="0"
       style="fill:#4c4c4c" />
    <path
       d="m 13.054706,28.922884 -2.779484,0 -0.198714,-3.47618 2.581268,-0.868743 0.39693,4.344923 z"
       id="path3396"
       inkscape:connector-curvature="0"
       style="fill:#4c4c4c" />
    <path
       d="m 12.558335,23.998397 -2.481827,0.868983 -0.5954744,-3.041446 2.0845724,-1.592899 0.992729,3.765362 z"
       id="path3398"
       inkscape:connector-curvature="0"
       style="fill:#4c4c4c" />
    <path
       d="M 11.367059,19.653472 9.381598,21.246611 7.793395,19.653472 9.2824881,17.191349 11.367059,19.653472 z"
       id="path3400"
       inkscape:connector-curvature="0"
       style="fill:#4c4c4c" />
    <path
       d="m 4.5173795,16.756855 1.4890935,2.606955 1.3896631,0 1.2907142,-2.606955 -1.2907142,-0.579322 -1.424571,0 -1.4541856,0.579322 z"
       id="path3402"
       inkscape:connector-curvature="0"
       style="fill:#4c4c4c" />
    <path
       d="m 0.24863602,28.922884 2.77964608,0 0.1985454,-3.47618 -2.58126287,-0.868743 -0.39692861,4.344923 z"
       id="path3404"
       inkscape:connector-curvature="0"
       style="fill:#9c0000" />
    <path
       d="M 0.74500012,23.998397 3.2268275,24.86738 3.8224699,21.825934 1.7377343,20.233035 0.74500012,23.998397 z"
       id="path3406"
       inkscape:connector-curvature="0"
       style="fill:#b50808" />
    <path
       d="M 1.9361125,19.653472 3.9215749,21.246611 5.5101086,19.653472 4.0210154,17.191349 1.9361125,19.653472 z"
       id="path3408"
       inkscape:connector-curvature="0"
       style="fill:#c61818" />
    <path
       d="m 13.054706,28.922884 -2.779484,0 -0.198714,-3.47618 2.581268,-0.868743 0.39693,4.344923 z"
       id="path3410"
       inkscape:connector-curvature="0"
       style="fill:#9c0000" />
    <path
       d="m 12.558335,23.998397 -2.481827,0.868983 -0.5954744,-3.041446 2.0845724,-1.592899 0.992729,3.765362 z"
       id="path3412"
       inkscape:connector-curvature="0"
       style="fill:#b50808" />
    <path
       d="M 11.367059,19.653472 9.381598,21.246611 7.793395,19.653472 9.2824881,17.191349 11.367059,19.653472 z"
       id="path3414"
       inkscape:connector-curvature="0"
       style="fill:#c61818" />
    <path
       d="m 4.5173795,16.756855 1.4890935,2.606955 1.3896631,0 1.2907142,-2.606955 -1.2907142,-0.579322 -1.424571,0 -1.4541856,0.579322 z"
       id="path3416"
       inkscape:connector-curvature="0"
       style="fill:#ce3129" />
    <path
       d="m 16.446702,19.792267 0,9.124341 1.079595,0 0,-3.258692 2.035097,3.258692 0.972047,0 0,-0.639668 -1.774505,-2.691439 c 0.462436,-0.08538 0.827275,-0.412469 1.096142,-0.977608 0.268856,-0.565132 0.407844,-1.203608 0.413638,-1.919007 0.0087,-0.830344 -0.174981,-1.517102 -0.546,-2.057806 -0.371038,-0.540686 -0.981579,-0.819493 -1.836555,-0.838813 l -1.439459,0 z m 4.992606,0 0,9.124341 3.474566,0 0,-1.436238 -2.394965,0 0,-2.606954 1.757959,0 0,-1.418134 -1.757959,0 0,-2.256949 2.295687,0 0,-1.406066 -3.375288,0 z m 4.516933,0 0,9.124341 1.786912,0 c 0.586192,-0.01431 1.058609,-0.238885 1.414647,-0.675877 0.356023,-0.436988 0.613802,-1.001663 0.773503,-1.689692 0.159684,-0.688024 0.23445,-1.417114 0.231637,-2.184531 0.0046,-0.758646 -0.06119,-1.479244 -0.202686,-2.172461 -0.141496,-0.693205 -0.382727,-1.262396 -0.723867,-1.707799 -0.341139,-0.445384 -0.811904,-0.678772 -1.406366,-0.693981 l -1.87378,0 z m -8.429944,1.363824 0.359864,0 c 0.448582,0.0046 0.772052,0.1373 0.976182,0.40432 0.204131,0.267038 0.305057,0.641189 0.301959,1.116404 -5.08e-4,0.493027 -0.08832,0.910635 -0.268865,1.255201 -0.180556,0.344577 -0.449423,0.521996 -0.80246,0.537082 -0.136501,-0.0079 -0.263902,-0.0356 -0.380545,-0.09052 -0.116643,-0.05491 -0.178693,-0.08869 -0.186135,-0.09655 l 0,-3.125932 z m 9.501264,0 0.76523,0 c 0.378334,0.01673 0.659617,0.203892 0.843823,0.56122 0.184202,0.357343 0.303607,0.782009 0.359864,1.27934 0.05625,0.497338 0.07996,0.963312 0.07445,1.40003 0.0052,0.449331 -0.02264,0.917447 -0.08687,1.40003 -0.06423,0.482585 -0.19252,0.89331 -0.384687,1.231063 -0.192172,0.337758 -0.477284,0.510172 -0.856232,0.525011 l -0.715593,0 0,-6.396694 z"
       id="path3418"
       inkscape:connector-curvature="0"
       style="fill:#9c0000" />
    <path
       d="m 31.445216,19.792267 0,9.124341 1.083732,0 0,-5.026835 -0.08273,-1.056057 1.451864,6.082892 0.893461,0 1.447735,-6.082892 -0.07859,1.056057 0,5.026835 1.083731,0 0,-9.124341 -1.274007,0 -1.489098,6.185484 c -0.04923,0.21755 -0.08149,0.403419 -0.103413,0.561219 -0.02192,0.157807 -0.03353,0.23988 -0.03311,0.247419 5.08e-4,-0.0067 -0.01119,-0.08629 -0.03311,-0.241383 -0.02192,-0.155087 -0.05833,-0.34337 -0.107554,-0.567255 l -1.489097,-6.185484 -1.269866,0 z m 7.226254,0 0,9.124341 1.071326,0 0,-9.124341 -1.071326,0 z m 2.452875,0 0,9.124341 1.083732,0 0,-5.183736 c -0.003,-0.316203 -0.01698,-0.596217 -0.03723,-0.832776 -0.0203,-0.236549 -0.03021,-0.356038 -0.03311,-0.368111 l 1.973056,6.384623 1.042368,0 0,-9.124341 -1.079596,0 c -5e-6,1.438756 -5e-6,2.514605 0,3.22852 -5e-6,0.713931 -5e-6,1.213157 0,1.49055 -5e-6,0.277405 -5e-6,0.480324 0,0.609497 -5e-6,0.129184 -5e-6,0.328178 0,0.597426 -0.002,-0.02232 -0.03271,-0.178018 -0.08687,-0.464663 -0.05419,-0.286635 -0.121201,-0.573892 -0.202686,-0.856916 l -1.38982,-4.604414 -1.269872,0 z m 5.480705,0 0,9.124341 3.474561,0 0,-1.436238 -2.394971,0 0,-2.606954 1.757964,0 0,-1.418134 -1.757964,0 0,-2.256949 2.295697,0 0,-1.406066 -3.375287,0 z"
       id="path3420"
       inkscape:connector-curvature="0"
       style="fill:#ce3129" />
    <path
       d="m 17.522162,31.445113 c -0.0095,-0.0053 -0.07507,0.0078 -0.198551,0.04225 -0.123479,0.0345 -0.248795,0.121741 -0.372269,0.259488 -0.12348,0.137753 -0.189049,0.359327 -0.198551,0.663807 l 0,0.337939 -0.264726,0 0,0.452596 0.264726,0.06638 0,2.437986 0.434324,0 0,-2.425917 0.37641,0 0,-0.531044 -0.37641,0 0,-0.307767 c 0.0052,-0.164308 0.04181,-0.285151 0.107543,-0.362077 0.06573,-0.07691 0.128686,-0.123557 0.19441,-0.144831 0.06572,-0.02126 0.102483,-0.03282 0.107541,-0.03017 l -0.07445,-0.458631 z m 0.347453,0.06639 0,2.956963 c 0.002,0.344596 0.0149,0.615661 0.04136,0.814672 0.02645,0.199016 0.05369,0.340328 0.07858,0.422423 l 0.446729,0 c -0.04568,-0.219004 -0.07945,-0.419158 -0.103401,-0.60346 -0.02395,-0.184304 -0.03708,-0.396527 -0.03723,-0.633635 l 0,-2.956963 -0.426048,0 z m 5.728883,0 0,3.892326 c 0.104275,0.116669 0.219406,0.212219 0.343324,0.283631 0.123917,0.07141 0.251455,0.10661 0.384685,0.10862 0.21907,-0.0067 0.39403,-0.0957 0.521181,-0.271557 0.127152,-0.17586 0.215246,-0.398772 0.268866,-0.663808 0.05362,-0.265033 0.08013,-0.534438 0.0786,-0.808639 0.0011,-0.348494 -0.05938,-0.665318 -0.182005,-0.947434 -0.12262,-0.282111 -0.313247,-0.429964 -0.570821,-0.446562 -0.0711,0.0033 -0.146582,0.03508 -0.223363,0.09655 -0.07679,0.06148 -0.137792,0.132389 -0.186134,0.211213 l 0,-1.454343 -0.434325,0 z m 2.01442,0 0,2.956963 c 0.002,0.344596 0.01491,0.615661 0.04136,0.814672 0.02645,0.199016 0.05369,0.340328 0.07859,0.422423 l 0.44673,0 c -0.04568,-0.219004 -0.07945,-0.419158 -0.103414,-0.60346 -0.02395,-0.184304 -0.03708,-0.396527 -0.03723,-0.633635 l 0,-2.956963 -0.426049,0 z m -2.816873,0.09052 c -0.0792,0.0031 -0.145722,0.04225 -0.202685,0.120693 -0.05697,0.07844 -0.08834,0.178026 -0.09099,0.295695 0.002,0.113781 0.02981,0.206816 0.08273,0.277592 0.0529,0.07078 0.117715,0.106489 0.19441,0.108623 0.07919,-0.0031 0.145721,-0.04224 0.20268,-0.120691 0.05695,-0.07845 0.08833,-0.178021 0.09101,-0.295698 -0.002,-0.113773 -0.02981,-0.206808 -0.08273,-0.277591 -0.05292,-0.07077 -0.117722,-0.106483 -0.194411,-0.108623 z m 12.702824,0 c -0.0792,0.0031 -0.145723,0.04225 -0.202681,0.120693 -0.05697,0.07844 -0.08834,0.178026 -0.091,0.295695 0.002,0.113781 0.02981,0.206816 0.08273,0.277592 0.05291,0.07078 0.117716,0.106489 0.194411,0.108623 0.07919,-0.0031 0.145722,-0.04224 0.20268,-0.120691 0.05695,-0.07845 0.08833,-0.178021 0.09101,-0.295698 -0.002,-0.113773 -0.02981,-0.206808 -0.08273,-0.277591 -0.05292,-0.07077 -0.117716,-0.106483 -0.19441,-0.108623 z m 4.483835,0.615532 0,0.531045 -0.277136,0 0,0.452596 0.26059,0.06638 0,1.786248 c -0.0015,0.205174 0.03113,0.377167 0.09513,0.518976 0.06403,0.141811 0.16916,0.217247 0.3185,0.22328 0.096,4.56e-4 0.173902,-0.01322 0.231638,-0.04224 0.05773,-0.02904 0.127366,-0.07581 0.210952,-0.138798 L 40.718975,35.16848 c -0.003,0.0032 -0.02543,0.01936 -0.07032,0.04225 -0.04491,0.02289 -0.09418,0.03295 -0.144772,0.03621 -0.04775,-0.0028 -0.07532,-0.02289 -0.08687,-0.06639 -0.01155,-0.0435 -0.01846,-0.09379 -0.01652,-0.144829 l 0,-1.75004 0.359869,0 0,-0.537081 -0.36814,0 0,-0.531047 -0.409503,0 z m 22.812136,0 0,0.531045 -0.277137,0 0,0.452596 0.260591,0.06638 0,1.786248 c -0.0015,0.205174 0.03112,0.377167 0.09513,0.518976 0.06403,0.141811 0.169162,0.217247 0.318505,0.22328 0.096,4.56e-4 0.173897,-0.01322 0.231635,-0.04224 0.05774,-0.02904 0.127365,-0.07581 0.210956,-0.138798 L 63.531107,35.16848 c -0.003,0.0032 -0.02543,0.01936 -0.07032,0.04225 -0.04491,0.02289 -0.09419,0.03295 -0.144776,0.03621 -0.04775,-0.0028 -0.07532,-0.02289 -0.08687,-0.06639 -0.01155,-0.0435 -0.01841,-0.09379 -0.01658,-0.144829 l 0,-1.75004 0.359863,0 0,-0.537081 -0.368139,0 0,-0.531047 -0.409497,0 z M 19.656532,32.65808 c -0.281187,0.0156 -0.500073,0.174509 -0.653548,0.4707 -0.153474,0.296199 -0.229659,0.636158 -0.231638,1.025886 -0.0015,0.255835 0.0237,0.510784 0.07445,0.760363 0.05077,0.249574 0.133541,0.455131 0.252321,0.621564 0.118779,0.166432 0.281221,0.253081 0.483953,0.259488 0.119868,-0.0053 0.245687,-0.05356 0.376415,-0.144831 0.130723,-0.09127 0.242061,-0.193863 0.335047,-0.307766 l -0.144777,-0.410352 c -0.07324,0.08222 -0.157356,0.157656 -0.256456,0.223279 -0.09909,0.06562 -0.195621,0.09882 -0.285408,0.102595 -0.146841,-0.01888 -0.250254,-0.13352 -0.310229,-0.35001 -0.05998,-0.21649 -0.08893,-0.421669 -0.08687,-0.609497 -5.1e-4,-0.03621 5.09e-4,-0.07241 0.004,-0.108621 l 1.183009,0 c -1.77e-4,-0.06638 0.0011,-0.132761 0,-0.199144 -0.0011,-0.06638 -0.004,-0.13276 -0.004,-0.19914 -0.01108,-0.292801 -0.08619,-0.552797 -0.223362,-0.778468 -0.137193,-0.225663 -0.307472,-0.343843 -0.51291,-0.356041 z m 7.743304,0 c -0.281187,0.0156 -0.500073,0.174509 -0.653547,0.4707 -0.153479,0.296199 -0.22966,0.636158 -0.231639,1.025886 -0.0015,0.255835 0.0237,0.510784 0.07445,0.760363 0.05077,0.249574 0.133541,0.455131 0.25232,0.621564 0.11878,0.166432 0.281227,0.253081 0.483959,0.259488 0.119867,-0.0053 0.245682,-0.05356 0.376409,-0.144831 0.130724,-0.09127 0.242066,-0.193863 0.335048,-0.307766 l -0.144771,-0.410352 c -0.07326,0.08222 -0.157356,0.157656 -0.256457,0.223279 -0.09909,0.06562 -0.195615,0.09882 -0.285408,0.102595 -0.146841,-0.01888 -0.250254,-0.13352 -0.310235,-0.35001 -0.05998,-0.21649 -0.08892,-0.421669 -0.08687,-0.609497 -5.09e-4,-0.03621 5.09e-4,-0.07241 0.004,-0.108621 l 1.183004,0 c -1.73e-4,-0.06638 0.0011,-0.132761 0,-0.199144 -0.0011,-0.06638 -0.004,-0.13276 -0.004,-0.19914 -0.01108,-0.292801 -0.08618,-0.552797 -0.223364,-0.778468 -0.137187,-0.225663 -0.307472,-0.343843 -0.51291,-0.356041 z m 3.329785,0 c -0.117112,0.0084 -0.215352,0.05054 -0.293679,0.126729 -0.07834,0.07619 -0.129009,0.136534 -0.153052,0.181038 l 0,-0.217247 -0.43845,0 0,4.01302 0.43845,0 0,-1.267269 c 0.04136,0.104977 0.101343,0.180914 0.177865,0.229314 0.07653,0.04841 0.15718,0.07306 0.244048,0.07241 0.207533,-0.0075 0.36666,-0.09834 0.479817,-0.277591 0.113166,-0.179248 0.192474,-0.404097 0.235775,-0.663807 0.04329,-0.259708 0.06409,-0.51138 0.06205,-0.760362 0.0011,-0.347614 -0.05937,-0.66997 -0.181995,-0.96554 -0.12263,-0.295564 -0.313251,-0.451963 -0.570826,-0.470699 z m 1.985462,0 c -0.07101,0.01282 -0.13995,0.06713 -0.206816,0.1569 -0.06687,0.08977 -0.10272,0.138045 -0.107553,0.150867 l 0,-0.217247 -0.438455,0 0,2.956962 0.434319,0 0,-2.202634 c 0.004,-0.01107 0.03515,-0.05532 0.091,-0.132763 0.05584,-0.07744 0.111682,-0.121694 0.169588,-0.132761 0.05308,0.0046 0.104096,0.02263 0.153047,0.05431 0.04894,0.03169 0.07514,0.04979 0.07858,0.05431 l 0.07032,-0.597426 c -5.09e-4,-0.0037 -0.02034,-0.01584 -0.06205,-0.04224 -0.04172,-0.0264 -0.103067,-0.0445 -0.181998,-0.04827 z m 1.274007,0 c -0.278776,0.01936 -0.488014,0.187333 -0.624596,0.506909 -0.136582,0.31958 -0.203113,0.674625 -0.202681,1.062092 -5.08e-4,0.390109 0.0661,0.743648 0.202681,1.062093 0.136582,0.318448 0.34582,0.487926 0.624596,0.506907 0.278768,-0.01898 0.488006,-0.188459 0.624594,-0.506907 0.136582,-0.318445 0.203108,-0.671984 0.202681,-1.062093 5.08e-4,-0.387467 -0.0661,-0.742512 -0.202681,-1.062092 -0.136588,-0.319576 -0.345826,-0.487545 -0.624594,-0.506909 z m 3.056787,0 c -0.281186,0.0156 -0.500077,0.174509 -0.653552,0.4707 -0.153475,0.296199 -0.229656,0.636158 -0.231634,1.025886 -0.0015,0.255835 0.0237,0.510784 0.07445,0.760363 0.05077,0.249574 0.13354,0.455131 0.25232,0.621564 0.11878,0.166432 0.281226,0.253081 0.483959,0.259488 0.119862,-0.0053 0.245683,-0.05356 0.37641,-0.144831 0.130722,-0.09127 0.24206,-0.193863 0.335046,-0.307766 l -0.144771,-0.410352 c -0.07324,0.08222 -0.15736,0.157656 -0.256456,0.223279 -0.09911,0.06562 -0.195621,0.09882 -0.285413,0.102595 -0.146841,-0.01888 -0.250254,-0.13352 -0.310225,-0.35001 -0.05998,-0.21649 -0.08893,-0.421669 -0.08687,-0.609497 -5.08e-4,-0.03621 5.08e-4,-0.07241 0.004,-0.108621 l 1.183003,0 c -1.73e-4,-0.06638 0.0011,-0.132761 0,-0.199144 -0.0011,-0.06638 -0.004,-0.13276 -0.004,-0.19914 -0.01108,-0.292801 -0.08617,-0.552797 -0.223358,-0.778468 -0.137191,-0.225663 -0.307477,-0.343843 -0.512915,-0.356041 z m 1.89446,0 c -0.19262,0.0062 -0.352311,0.09145 -0.475683,0.253455 -0.123378,0.162004 -0.213973,0.366365 -0.273002,0.609495 -0.05903,0.243136 -0.08728,0.48661 -0.08687,0.736225 -7.1e-5,0.24127 0.03078,0.47819 0.09101,0.712083 0.06026,0.233896 0.151154,0.429913 0.273,0.585359 0.121842,0.155443 0.274483,0.235462 0.459143,0.241384 0.114608,-0.0029 0.229741,-0.04464 0.347453,-0.120693 0.117711,-0.07606 0.220431,-0.169096 0.306094,-0.283626 l -0.148912,-0.43449 c -0.06274,0.07329 -0.135814,0.143196 -0.223363,0.205176 -0.08756,0.06198 -0.173042,0.09266 -0.25232,0.09655 -0.105428,-0.0065 -0.187035,-0.06881 -0.248184,-0.193108 -0.06115,-0.124303 -0.106603,-0.270629 -0.132366,-0.434492 -0.02574,-0.163862 -0.03794,-0.309294 -0.03724,-0.434492 -5.1e-4,-0.118829 0.01384,-0.25487 0.04136,-0.410356 0.02752,-0.155479 0.07267,-0.292417 0.132361,-0.410352 0.0597,-0.117932 0.135484,-0.18089 0.231638,-0.187075 0.06384,9.41e-4 0.131074,0.02313 0.198546,0.06035 0.06747,0.03721 0.124349,0.08349 0.173729,0.144833 l 0.219228,-0.374146 c -0.07007,-0.120697 -0.162101,-0.211218 -0.273,-0.271566 -0.110912,-0.06035 -0.217429,-0.09052 -0.322642,-0.09052 z m 4.459015,0 c -0.08866,0.0062 -0.182779,0.04589 -0.285404,0.114658 -0.102642,0.06877 -0.178128,0.129621 -0.223369,0.187073 l 0,-0.211211 -0.434318,0 0,2.956962 0.434318,0 0,-2.172463 c 0.04084,-0.05053 0.109098,-0.113901 0.206819,-0.193107 0.09772,-0.0792 0.190788,-0.124462 0.277142,-0.132761 0.06892,0.002 0.115126,0.04024 0.140635,0.108623 0.02554,0.06839 0.03861,0.154891 0.03724,0.265525 l 0,2.124183 0.43432,0 0,-2.226772 c 0.04659,-0.05356 0.106938,-0.107868 0.182,-0.168971 0.07505,-0.0611 0.158128,-0.09731 0.248184,-0.102583 0.06894,-0.0015 0.115122,0.02263 0.140636,0.06638 0.02554,0.04376 0.03861,0.11617 0.03724,0.223281 l 0,2.208669 0.434325,0 0,-2.208669 c 0.004,-0.238237 -0.03475,-0.433864 -0.11996,-0.591392 -0.08524,-0.157525 -0.242066,-0.241505 -0.467408,-0.247421 -0.104276,0.0074 -0.206998,0.05219 -0.310228,0.132762 -0.103246,0.08059 -0.189416,0.152504 -0.256456,0.217246 -0.04334,-0.08587 -0.102977,-0.163813 -0.182,-0.235348 -0.07902,-0.07153 -0.177955,-0.110257 -0.293688,-0.11466 z m 2.899603,0 c -0.133306,0.0038 -0.265336,0.05809 -0.392956,0.1569 -0.127625,0.09882 -0.232757,0.219512 -0.318501,0.368111 l 0.148913,0.380182 c 0.06661,-0.09428 0.148993,-0.175755 0.244044,-0.247419 0.09506,-0.07166 0.187778,-0.110885 0.281272,-0.114658 0.07152,-0.002 0.130123,0.01711 0.173729,0.06035 0.04359,0.04324 0.06498,0.122707 0.06619,0.235349 l 0,0.295698 -0.889316,0.561219 c -0.03053,0.08448 -0.05739,0.181039 -0.08274,0.289661 -0.02534,0.108624 -0.03982,0.211214 -0.04136,0.307766 -7.2e-5,0.264891 0.04507,0.473593 0.1365,0.621564 0.09143,0.14797 0.229655,0.220895 0.413639,0.223281 0.116765,-8.3e-4 0.215692,-0.03997 0.297818,-0.114659 0.08212,-0.07467 0.154166,-0.180283 0.215092,-0.319832 0.01812,0.134015 0.05946,0.238618 0.12409,0.313799 0.06463,0.07518 0.143225,0.1134 0.235779,0.114659 0.05204,-4.57e-4 0.103055,-0.01394 0.153041,-0.03621 0.05001,-0.02225 0.09687,-0.05092 0.140637,-0.09052 l -0.111677,-0.319835 c -0.01241,0.0094 -0.02482,0.01697 -0.03723,0.02414 -0.01241,0.0072 -0.02482,0.01168 -0.03724,0.01206 -0.03042,-0.002 -0.05077,-0.01611 -0.06205,-0.04827 -0.01129,-0.03218 -0.01715,-0.07039 -0.01658,-0.108623 l 0,-1.719866 c -0.0036,-0.288652 -0.0648,-0.501878 -0.182004,-0.639669 -0.117198,-0.137788 -0.269558,-0.20618 -0.459137,-0.205177 z m 2.258464,0 c -0.09238,0.0031 -0.190965,0.03621 -0.293683,0.09655 -0.10272,0.06034 -0.188896,0.129748 -0.260591,0.211211 l 0,-0.217246 -0.434319,0 0,2.956961 0.434319,0 0,-2.18453 c 0.05308,-0.06324 0.128918,-0.129114 0.223363,-0.199142 0.09445,-0.07002 0.186827,-0.108748 0.281274,-0.114659 0.06645,-0.0014 0.11091,0.02389 0.132365,0.07242 0.02146,0.04853 0.03078,0.12799 0.02895,0.241386 l 0,2.184531 0.434321,0 0,-2.184531 c 0.0061,-0.233961 -0.02691,-0.436628 -0.09927,-0.603461 -0.0724,-0.166825 -0.221302,-0.251818 -0.446731,-0.25949 z m 1.815869,0 c -0.133306,0.0038 -0.265331,0.05809 -0.392951,0.1569 -0.127629,0.09882 -0.232761,0.219512 -0.318504,0.368111 l 0.148911,0.380182 c 0.06661,-0.09428 0.148998,-0.175755 0.244044,-0.247419 0.09506,-0.07166 0.187779,-0.110885 0.281278,-0.114658 0.07153,-0.002 0.130122,0.01711 0.173729,0.06035 0.04359,0.04324 0.06497,0.122707 0.06619,0.235349 l 0,0.295698 -0.889326,0.561219 c -0.03052,0.08448 -0.05739,0.181039 -0.08273,0.289661 -0.02534,0.108624 -0.03982,0.211214 -0.04136,0.307766 -7.1e-5,0.264891 0.04508,0.473593 0.1365,0.621564 0.09143,0.14797 0.229655,0.220895 0.413638,0.223281 0.116765,-8.3e-4 0.215699,-0.03997 0.297819,-0.114659 0.08212,-0.07467 0.154167,-0.180283 0.215091,-0.319832 0.01812,0.134015 0.05946,0.238618 0.124097,0.313799 0.06463,0.07518 0.143218,0.1134 0.235769,0.114659 0.05204,-4.57e-4 0.103065,-0.01394 0.153046,-0.03621 0.05001,-0.02225 0.09687,-0.05092 0.140641,-0.09052 l -0.111675,-0.319835 c -0.01241,0.0094 -0.02482,0.01697 -0.03723,0.02414 -0.01241,0.0072 -0.02482,0.01168 -0.03724,0.01206 -0.03042,-0.002 -0.05077,-0.01611 -0.06205,-0.04827 -0.01129,-0.03218 -0.01714,-0.07039 -0.01658,-0.108623 l 0,-1.719866 c -0.0036,-0.288652 -0.06481,-0.501878 -0.182005,-0.639669 -0.117198,-0.137788 -0.269552,-0.20618 -0.459137,-0.205177 z m 1.902738,0 c -0.222326,0.004 -0.39813,0.100957 -0.529458,0.289662 -0.131328,0.188707 -0.199583,0.445689 -0.202681,0.772432 -5.1e-4,0.175506 0.02635,0.346492 0.08273,0.512942 0.05635,0.166454 0.14529,0.289161 0.264726,0.368112 -0.07539,0.03972 -0.141237,0.09907 -0.198546,0.181037 -0.05731,0.08197 -0.08798,0.183555 -0.09099,0.301732 0.0026,0.106108 0.02656,0.20166 0.07445,0.283626 0.04792,0.08197 0.105136,0.129243 0.169588,0.144832 -0.08247,0.04929 -0.164166,0.128741 -0.244044,0.235351 -0.07988,0.106609 -0.122285,0.234344 -0.128231,0.386213 0.009,0.282743 0.08868,0.481388 0.23578,0.597428 0.147091,0.116038 0.30738,0.172863 0.483953,0.168971 0.230254,-0.0014 0.437769,-0.09681 0.624595,-0.283628 0.18682,-0.186821 0.286784,-0.457378 0.297818,-0.814675 -0.0046,-0.217994 -0.05713,-0.380934 -0.157183,-0.494837 -0.100045,-0.113901 -0.221038,-0.174248 -0.364003,-0.175003 l -0.132361,0 c -0.05921,0.0055 -0.142971,0.0089 -0.248184,0.0061 -0.105216,-0.0029 -0.162097,-0.04464 -0.17373,-0.120692 0.0061,-0.09693 0.03932,-0.161804 0.09927,-0.199143 0.05997,-0.03734 0.109612,-0.06299 0.148911,-0.07241 0.02472,-0.0087 0.04715,-0.01322 0.07032,-0.0181 0.02314,-0.0048 0.04767,-0.01245 0.07032,-0.0181 0.168469,-0.06234 0.298424,-0.176009 0.388821,-0.343973 0.09039,-0.167959 0.13555,-0.37817 0.136496,-0.627598 -5.08e-4,-0.07594 -0.0052,-0.153381 -0.01658,-0.229318 -0.01144,-0.07593 -0.0263,-0.147342 -0.04136,-0.217245 l 0.235774,0 0,-0.543115 -0.517046,0 c -0.05213,-0.03282 -0.107631,-0.05845 -0.165453,-0.07241 -0.05782,-0.01394 -0.115393,-0.01848 -0.173728,-0.01809 z m 2.002008,0 c -0.281186,0.0156 -0.500074,0.174509 -0.653546,0.4707 -0.15348,0.296199 -0.229655,0.636158 -0.231639,1.025886 -0.0015,0.255835 0.0237,0.510784 0.07445,0.760363 0.05077,0.249574 0.13354,0.455131 0.252315,0.621564 0.118779,0.166432 0.281227,0.253081 0.483958,0.259488 0.119868,-0.0053 0.245683,-0.05356 0.376411,-0.144831 0.130722,-0.09127 0.242065,-0.193863 0.335046,-0.307766 l -0.144771,-0.41035 c -0.07324,0.08222 -0.15736,0.157656 -0.256456,0.22328 -0.09909,0.06562 -0.195615,0.09882 -0.285412,0.102594 -0.146842,-0.01888 -0.250256,-0.133518 -0.310225,-0.350008 -0.05998,-0.21649 -0.08893,-0.42167 -0.08687,-0.609497 -5.07e-4,-0.03621 5.09e-4,-0.07241 0.004,-0.108622 l 1.183003,0 c -1.72e-4,-0.06638 0.0011,-0.132761 0,-0.199144 -0.0011,-0.06638 -0.004,-0.13276 -0.004,-0.19914 -0.01108,-0.292801 -0.08617,-0.552797 -0.223363,-0.778467 -0.137192,-0.225663 -0.307477,-0.343844 -0.51291,-0.356043 z m 2.142645,0 c -0.08868,0.0062 -0.182778,0.04589 -0.285414,0.114658 -0.102629,0.06877 -0.178122,0.129621 -0.223361,0.187073 l 0,-0.211211 -0.434319,0 0,2.956962 0.434319,0 0,-2.172463 c 0.04084,-0.05053 0.109098,-0.113901 0.20682,-0.193107 0.09772,-0.0792 0.19079,-0.124462 0.277138,-0.132761 0.06894,0.002 0.115127,0.04024 0.140636,0.108623 0.02554,0.06839 0.03861,0.154891 0.03724,0.265525 l 0,2.124183 0.43432,0 0,-2.226772 c 0.04665,-0.05356 0.106938,-0.107868 0.181999,-0.168971 0.07505,-0.0611 0.158129,-0.09731 0.248185,-0.102583 0.06894,-0.0015 0.115122,0.02263 0.140636,0.06638 0.02554,0.04376 0.0386,0.11617 0.03723,0.223281 l 0,2.208669 0.434321,0 0,-2.208669 c 0.004,-0.238237 -0.03475,-0.433864 -0.119955,-0.591392 -0.08523,-0.157525 -0.242071,-0.241505 -0.467412,-0.247421 -0.104275,0.0074 -0.206995,0.05219 -0.31023,0.132762 -0.103235,0.08059 -0.189415,0.152504 -0.256455,0.217246 -0.04334,-0.08587 -0.102977,-0.163813 -0.182,-0.235348 -0.07902,-0.07153 -0.177951,-0.110257 -0.293684,-0.11466 z m 2.994737,0 c -0.281179,0.0156 -0.500071,0.174509 -0.653547,0.4707 -0.153474,0.296199 -0.229655,0.636158 -0.231638,1.025886 -0.0015,0.255835 0.02369,0.510784 0.07445,0.760363 0.05077,0.249574 0.13354,0.455131 0.25232,0.621564 0.11878,0.166432 0.281221,0.253081 0.483957,0.259488 0.119863,-0.0053 0.245684,-0.05356 0.376411,-0.144831 0.130723,-0.09127 0.24206,-0.193863 0.335046,-0.307766 l -0.144776,-0.410352 c -0.07324,0.08222 -0.157355,0.157656 -0.256455,0.223279 -0.09909,0.06562 -0.195616,0.09882 -0.285408,0.102595 -0.146842,-0.01888 -0.250255,-0.13352 -0.310229,-0.35001 -0.05999,-0.21649 -0.08893,-0.421669 -0.08687,-0.609497 -5.09e-4,-0.03621 5.1e-4,-0.07241 0.004,-0.108621 l 1.183009,0 c -1.73e-4,-0.06638 0.0011,-0.132761 0,-0.199144 -0.0011,-0.06638 -0.004,-0.13276 -0.004,-0.19914 -0.01108,-0.292801 -0.08617,-0.552797 -0.223365,-0.778468 -0.137186,-0.225663 -0.307472,-0.343843 -0.51291,-0.356041 z m 2.184009,0 c -0.09238,0.0031 -0.190961,0.03621 -0.293678,0.09655 -0.10272,0.06034 -0.188903,0.129748 -0.260595,0.211211 l 0,-0.217246 -0.434321,0 0,2.956961 0.434321,0 0,-2.18453 c 0.05308,-0.06324 0.128916,-0.129114 0.223362,-0.199142 0.09444,-0.07002 0.186831,-0.108748 0.281278,-0.114659 0.06644,-0.0014 0.110898,0.02389 0.132359,0.07242 0.02148,0.04853 0.03077,0.12799 0.02895,0.241386 l 0,2.184531 0.43432,0 0,-2.184531 c 0.0061,-0.233961 -0.02691,-0.436628 -0.09927,-0.603461 -0.0724,-0.166825 -0.221302,-0.251818 -0.44673,-0.25949 z m -40.979117,0.09052 0.550139,1.430204 -0.587362,1.526757 0.475678,0 0.351592,-1.001746 0.364004,1.001746 0.496366,0 -0.62046,-1.562965 c 0.02635,-0.0647 0.08246,-0.207524 0.169593,-0.428458 0.08714,-0.220929 0.172065,-0.435498 0.25232,-0.639669 0.08025,-0.204164 0.122585,-0.311452 0.128231,-0.325869 l -0.475688,0 -0.310224,0.887089 -0.306095,-0.887089 -0.488094,0 z m 1.95237,0 0,2.956961 0.426048,0 0,-2.956961 -0.426048,0 z m 12.706963,0 0,3.174207 c -0.003,0.12723 -0.03251,0.234849 -0.091,0.319836 -0.05851,0.08499 -0.127113,0.144329 -0.202683,0.181038 l 0.09099,0.452597 c 0.134777,-0.05142 0.272662,-0.142444 0.409503,-0.277592 0.136842,-0.135147 0.208541,-0.349887 0.219228,-0.639669 l 0,-3.210417 -0.426044,0 z m 16.971567,0.368111 c 0.1078,0.0075 0.181226,0.07394 0.223363,0.193109 0.04218,0.119182 0.06386,0.245914 0.06205,0.386215 0.002,0.136407 -0.0174,0.262634 -0.05791,0.374145 -0.04049,0.111514 -0.113581,0.168342 -0.219231,0.175005 -0.118837,-0.0058 -0.197082,-0.06512 -0.235775,-0.181039 -0.03872,-0.115913 -0.05696,-0.253707 -0.05377,-0.410355 -0.0015,-0.138539 0.02034,-0.261247 0.06205,-0.368111 0.04171,-0.106859 0.113403,-0.163182 0.219228,-0.168969 z m -32.623629,0.01206 c 0.105215,0.005 0.184837,0.05834 0.239909,0.162935 0.05506,0.104599 0.08713,0.230325 0.09513,0.374148 l -0.690774,0 c 0.02152,-0.141179 0.06015,-0.262381 0.115813,-0.368114 0.05567,-0.105728 0.135642,-0.163561 0.239915,-0.168969 z m 7.743299,0 c 0.105215,0.005 0.184849,0.05834 0.239909,0.162935 0.05506,0.104599 0.08714,0.230325 0.09513,0.374148 l -0.690774,0 c 0.02157,-0.141179 0.06016,-0.262381 0.115818,-0.368114 0.05566,-0.105728 0.135642,-0.163561 0.239908,-0.168969 z m 9.646041,0 c 0.105215,0.005 0.184849,0.05834 0.23991,0.162935 0.05506,0.104599 0.08712,0.230325 0.09513,0.374148 l -0.690774,0 c 0.02157,-0.141179 0.06016,-0.262381 0.115819,-0.368114 0.05566,-0.105728 0.135636,-0.163561 0.239908,-0.168969 z m 17.232163,0 c 0.105214,0.005 0.184843,0.05834 0.239908,0.162935 0.05506,0.104599 0.08713,0.230325 0.09513,0.374148 l -0.690781,0 c 0.02157,-0.141179 0.06016,-0.262381 0.11582,-0.368114 0.05566,-0.105728 0.13564,-0.163561 0.239913,-0.168969 z m 5.137382,0 c 0.105216,0.005 0.184843,0.05834 0.239911,0.162935 0.05506,0.104599 0.08713,0.230325 0.09513,0.374148 l -0.690774,0 c 0.02152,-0.141179 0.06015,-0.262381 0.115818,-0.368114 0.05566,-0.105728 0.135637,-0.163561 0.239911,-0.168969 z m -25.397374,0.07241 c 0.123144,0.0095 0.220691,0.114163 0.289547,0.3138 0.06885,0.199647 0.102283,0.437012 0.103413,0.712085 -0.0011,0.277715 -0.03454,0.513573 -0.103413,0.712084 -0.06886,0.198513 -0.166403,0.304624 -0.289547,0.313801 -0.123144,-0.0091 -0.220699,-0.115288 -0.289543,-0.313801 -0.06887,-0.198511 -0.102295,-0.434369 -0.103414,-0.712084 0.0011,-0.275073 0.03454,-0.512438 0.103414,-0.712085 0.06884,-0.199637 0.166399,-0.304243 0.289543,-0.3138 z m -9.583993,0.02414 c 0.144768,0.0166 0.239911,0.122203 0.285408,0.319836 0.04548,0.197631 0.06619,0.387726 0.06205,0.567252 0.0015,0.128365 -0.0086,0.284453 -0.02895,0.464667 -0.0203,0.180217 -0.05829,0.336747 -0.11582,0.476735 -0.05753,0.139986 -0.141944,0.215607 -0.25232,0.22328 -0.05326,-0.0015 -0.107027,-0.01659 -0.165458,-0.04827 -0.05842,-0.03168 -0.112197,-0.0709 -0.157176,-0.114659 l 0,-1.587106 c 0.04446,-0.06273 0.102372,-0.126599 0.173722,-0.193106 0.07135,-0.06651 0.137539,-0.103214 0.198551,-0.108623 z m 6.28316,0 c 0.148388,0.01761 0.245596,0.130254 0.289548,0.337938 0.04394,0.207691 0.06256,0.404827 0.0579,0.591394 0.0015,0.114172 -0.0057,0.259082 -0.0207,0.428457 -0.01501,0.16938 -0.04522,0.318757 -0.09513,0.452595 -0.04995,0.133841 -0.128383,0.203652 -0.231639,0.211211 -0.168901,-0.0176 -0.277827,-0.133267 -0.330911,-0.350006 -0.05308,-0.216741 -0.07927,-0.428961 -0.07445,-0.633637 l 0,-0.736223 c 0.04792,-0.07064 0.105137,-0.136029 0.173731,-0.199139 0.0686,-0.06311 0.1465,-0.09831 0.231638,-0.102584 z m 15.821656,1.104334 0,0.108624 c -0.0011,0.193357 -0.03826,0.378423 -0.111682,0.555184 -0.07343,0.176761 -0.176834,0.271308 -0.310226,0.283628 -0.06221,-0.0032 -0.108415,-0.03746 -0.140641,-0.102585 -0.03225,-0.06511 -0.04949,-0.141564 -0.04964,-0.229317 5.09e-4,-0.04275 0.0059,-0.087 0.0124,-0.132761 0.0065,-0.04576 0.01205,-0.09003 0.0207,-0.132762 l 0.579096,-0.350008 z m 4.074332,0 0,0.108624 c -0.0011,0.193357 -0.03826,0.378423 -0.111682,0.555184 -0.07343,0.176761 -0.176837,0.271308 -0.31023,0.283628 -0.06221,-0.0032 -0.108405,-0.03746 -0.140641,-0.102585 -0.03225,-0.06511 -0.04943,-0.141564 -0.04964,-0.229317 5.09e-4,-0.04275 0.0059,-0.087 0.01241,-0.132761 0.0065,-0.04576 0.01205,-0.09003 0.0207,-0.132762 l 0.579097,-0.350008 z m 1.559414,1.291408 0.239914,0 c 0.06195,-0.0048 0.127793,0.0062 0.198547,0.03017 0.07075,0.02389 0.109691,0.08927 0.115818,0.199143 -0.0054,0.188326 -0.05567,0.332156 -0.153047,0.434491 -0.09738,0.102333 -0.20975,0.155645 -0.335046,0.1569 -0.07988,0.0029 -0.149172,-0.02175 -0.210957,-0.07845 -0.06178,-0.0567 -0.09592,-0.162813 -0.09927,-0.3138 0.01019,-0.126096 0.05292,-0.22919 0.124089,-0.307766 0.07118,-0.07857 0.109792,-0.118303 0.119955,-0.120692 z"
       id="path3422"
       inkscape:connector-curvature="0"
       style="fill:#636363" />
  </g>
</svg>
