<?xml version="1.0" encoding="utf-8"?>
<!-- Generator: Adobe Illustrator 16.0.4, SVG Export Plug-In . SVG Version: 6.00 Build 0)  -->
<!DOCTYPE svg PUBLIC "-//W3C//DTD SVG 1.1//EN" "http://www.w3.org/Graphics/SVG/1.1/DTD/svg11.dtd">
<svg version="1.1" id="Calque_1" xmlns="http://www.w3.org/2000/svg" xmlns:xlink="http://www.w3.org/1999/xlink" x="0px" y="0px"
	 width="288px" height="288px" viewBox="0 0 288 288" enable-background="new 0 0 288 288" xml:space="preserve">
<g>
	<g>
		<path fill="#4C4C4C" d="M115.729,158.338h12.271l0.877-10.524l-11.395-2.629L115.729,158.338z"/>
		<path fill="#4C4C4C" d="M117.918,143.43l10.959,2.632l2.629-9.206l-9.202-4.821L117.918,143.43z"/>
		<path fill="#4C4C4C" d="M123.181,130.28l8.766,4.824l7.016-4.824l-6.574-7.452L123.181,130.28z"/>
		<path fill="#4C4C4C" d="M172.273,158.338h-12.271l-0.879-10.524l11.396-2.629L172.273,158.338z"/>
		<path fill="#4C4C4C" d="M170.082,143.43l-10.959,2.632l-2.629-9.206l9.203-4.821L170.082,143.43z"/>
		<path fill="#4C4C4C" d="M164.82,130.28l-8.769,4.824l-7.012-4.824l6.576-7.452L164.82,130.28z"/>
		<path fill="#4C4C4C" d="M134.576,121.512l6.574,7.893h6.137l5.701-7.893l-5.701-1.754h-6.291L134.576,121.512z"/>
		<path fill="#9C0000" d="M115.729,158.338h12.271l0.877-10.524l-11.395-2.629L115.729,158.338z"/>
		<path fill="#B50808" d="M117.918,143.43l10.959,2.632l2.629-9.206l-9.202-4.821L117.918,143.43z"/>
		<path fill="#C61818" d="M123.181,130.28l8.766,4.824l7.016-4.824l-6.574-7.452L123.181,130.28z"/>
		<path fill="#9C0000" d="M172.273,158.338h-12.271l-0.879-10.524l11.396-2.629L172.273,158.338z"/>
		<path fill="#B50808" d="M170.082,143.43l-10.959,2.632l-2.629-9.206l9.203-4.821L170.082,143.43z"/>
		<path fill="#C61818" d="M164.82,130.28l-8.769,4.824l-7.012-4.824l6.576-7.452L164.82,130.28z"/>
		<path fill="#CE3129" d="M134.576,121.512l6.574,7.893h6.137l5.701-7.893l-5.701-1.754h-6.291L134.576,121.512z"/>
	</g>
	<path fill="#A24689" d="M144.316,67.934c10.266,0,19.963,2.042,29.078,6.128c9.11,4.086,17.129,9.587,24.047,16.502
		c6.912,6.914,12.416,14.985,16.5,24.202c4.088,9.225,6.125,19.071,6.125,29.548c0,10.478-1.99,20.274-5.97,29.389
		c-3.981,9.115-9.381,17.129-16.188,24.048c-6.812,6.912-14.828,12.366-24.043,16.344c-9.225,3.981-19.174,5.973-29.859,5.973
		c-10.483,0-20.332-1.885-29.547-5.658c-9.227-3.773-17.291-9.061-24.205-15.871c-6.913-6.81-12.366-14.824-16.346-24.049
		c-3.983-9.22-5.975-19.275-5.975-30.175c0-10.477,1.938-20.276,5.813-29.391s9.275-17.077,16.189-23.886
		c6.914-6.809,15.033-12.259,24.36-16.346C123.623,70.604,133.631,68.354,144.316,67.934z M144.006,99.05
		c-6.084,0-11.897,1.153-17.448,3.458c-5.552,2.306-10.369,5.502-14.459,9.587c-4.084,4.084-7.338,8.854-9.738,14.299
		c-2.416,5.455-3.615,11.425-3.615,17.92c0,6.078,1.199,11.895,3.615,17.443c2.4,5.556,5.654,10.429,9.738,14.617
		c4.084,4.194,8.907,7.496,14.459,9.899c5.551,2.413,11.364,3.616,17.448,3.616c6.072,0,11.89-1.203,17.447-3.616
		c5.547-2.404,10.367-5.706,14.459-9.899c4.086-4.188,7.328-9.062,9.738-14.617c2.406-5.551,3.613-11.365,3.613-17.443
		c-0.623-12.362-5.027-22.788-13.199-31.276c-8.17-8.486-18.756-13.147-31.742-13.99h-0.315L144.006,99.05L144.006,99.05z"/>
</g>
</svg>
